<svg xmlns="http://www.w3.org/2000/svg" viewBox="0 0 121.95 26"><defs><style>.cls-1{fill:#1a428a;}</style></defs><g id="Layer_2" data-name="Layer 2"><g id="Layer_1-2" data-name="Layer 1"><path class="cls-1" d="M35.66,24.78l-.49,1.15h-.5l1.88-4.26,1.83,4.26h-.5l-.48-1.15Zm.88-2.05-.7,1.63h1.38Z"/><path class="cls-1" d="M40.49,25.93H40V21.86h.67a1.69,1.69,0,0,1,1,.22,1.13,1.13,0,0,1,.46.93,1.11,1.11,0,0,1-.39.87,1.42,1.42,0,0,1-1,.27h-.33Zm0-2.2h.3c.5,0,.93-.15.93-.73s-.54-.72-1.07-.72h-.16Z"/><path class="cls-1" d="M44.41,25.93H44V21.86h.67a1.69,1.69,0,0,1,1,.22,1.13,1.13,0,0,1,.46.93,1.14,1.14,0,0,1-.39.87,1.47,1.47,0,0,1-1,.27h-.33Zm0-2.2h.3c.51,0,.93-.15.93-.73s-.53-.72-1.06-.72h-.17Z"/><path class="cls-1" d="M48.06,24.78l-.49,1.15h-.5L49,21.67l1.83,4.26h-.5l-.48-1.15Zm.88-2.05-.7,1.63h1.38Z"/><path class="cls-1" d="M52.89,25.93h-.46V21.86H53c.77,0,1.49.21,1.49,1.13a1.07,1.07,0,0,1-1,1.12l1.3,1.82h-.56L53,24.15h-.11Zm0-2.18H53c.51,0,1-.1,1-.73s-.49-.74-1-.74h-.13Z"/><path class="cls-1" d="M56.57,21.86h2.11v.42H57v1.21h1.61v.42H57v1.6h1.66v.42H56.57Z"/><path class="cls-1" d="M61.12,25.51h1.12v.42H60.66V21.86h.46Z"/><path class="cls-1" d="M69.06,25.36a2,2,0,0,1-1.3.64,1.15,1.15,0,0,1-1.19-1.11c0-.68.49-1,1-1.34l.05,0a1.51,1.51,0,0,1-.41-.86.85.85,0,0,1,.89-.87.83.83,0,0,1,.87.8c0,.49-.37.75-.72,1l.86,1.09.46-.53.33.27-.52.6.69.89H69.5ZM67.69,24c-.31.22-.68.46-.68.88a.75.75,0,0,0,.72.73A1.79,1.79,0,0,0,68.79,25l-.91-1.17Zm.34-.73c.23-.18.5-.33.5-.66a.41.41,0,0,0-.44-.41.44.44,0,0,0-.45.44.94.94,0,0,0,.25.52l.1.14Z"/><path class="cls-1" d="M75.21,24.78l-.49,1.15h-.49l1.87-4.26,1.83,4.26h-.5L77,24.78Zm.88-2.05-.69,1.63h1.37Z"/><path class="cls-1" d="M82.69,22.75a1.75,1.75,0,0,0-1.24-.54,1.69,1.69,0,0,0,0,3.37A1.75,1.75,0,0,0,82.69,25v.56a2,2,0,0,1-1.21.4,2.11,2.11,0,1,1,0-4.21,2,2,0,0,1,1.21.4Z"/><path class="cls-1" d="M87.77,22.75a1.75,1.75,0,0,0-1.24-.54,1.69,1.69,0,0,0,0,3.37A1.75,1.75,0,0,0,87.77,25v.56a2,2,0,0,1-1.21.4,2.11,2.11,0,1,1,0-4.21,2,2,0,0,1,1.21.4Z"/><path class="cls-1" d="M89.75,21.86h2.11v.42H90.2v1.21h1.61v.42H90.2v1.6h1.66v.42H89.75Z"/><path class="cls-1" d="M95.69,22.66a.76.76,0,0,0-.7-.45.65.65,0,0,0-.68.64c0,.35.36.51.64.63l.27.12c.53.23,1,.5,1,1.15a1.29,1.29,0,0,1-2.55.2l.44-.12a.84.84,0,0,0,.82.75.81.81,0,0,0,.83-.79c0-.48-.37-.64-.75-.81l-.25-.11c-.47-.21-.88-.46-.88-1a1.07,1.07,0,0,1,1.14-1,1.17,1.17,0,0,1,1,.63Z"/><path class="cls-1" d="M99.92,22.66a.77.77,0,0,0-.71-.45.64.64,0,0,0-.67.64c0,.35.36.51.64.63l.27.12c.53.23,1,.5,1,1.15a1.28,1.28,0,0,1-2.54.2l.44-.12a.84.84,0,0,0,.81.75.82.82,0,0,0,.84-.79c0-.48-.37-.64-.75-.81L99,23.87c-.47-.21-.88-.46-.88-1a1.07,1.07,0,0,1,1.13-1,1.17,1.17,0,0,1,1.06.63Z"/><path class="cls-1" d="M106.33,23.9a2.12,2.12,0,1,1-2.12-2.11A2.11,2.11,0,0,1,106.33,23.9Zm-3.78,0a1.67,1.67,0,1,0,1.66-1.69A1.67,1.67,0,0,0,102.55,23.9Z"/><path class="cls-1" d="M108.61,25.93h-.45V21.86h.59c.77,0,1.49.21,1.49,1.13a1.07,1.07,0,0,1-1,1.12l1.29,1.82H110l-1.23-1.78h-.12Zm0-2.18h.14c.52,0,1-.1,1-.73s-.5-.74-1-.74h-.14Z"/><path class="cls-1" d="M112.76,25.93h-.45V21.86h.45Z"/><path class="cls-1" d="M114.8,21.86h2.11v.42h-1.66v1.21h1.61v.42h-1.61v1.6h1.66v.42H114.8Z"/><path class="cls-1" d="M120.74,22.66a.77.77,0,0,0-.71-.45.64.64,0,0,0-.67.64c0,.35.36.51.64.63l.27.12c.52.23,1,.5,1,1.15a1.28,1.28,0,0,1-2.54.2l.44-.12a.84.84,0,0,0,.81.75.82.82,0,0,0,.84-.79c0-.48-.37-.64-.75-.81l-.25-.11c-.47-.21-.88-.46-.88-1a1.07,1.07,0,0,1,1.13-1,1.17,1.17,0,0,1,1.06.63Z"/><path class="cls-1" d="M41.69,0a5.63,5.63,0,0,1,4.24,1.53,5.75,5.75,0,0,1,1.48,3.9A5,5,0,0,1,46,9a4.94,4.94,0,0,1-2.39,1.2l5.43,7.1H43.48l-4.31-6.66v6.66h-4.5V0ZM39.17,7.77H40a3.39,3.39,0,0,0,2.18-.7,2.15,2.15,0,0,0,.57-1.46,2,2,0,0,0-.6-1.45A3,3,0,0,0,40,3.48h-.86Z"/><path class="cls-1" d="M60.9,14.42H54.61l-1.17,2.92H48.68L55.33,0h4.92l6.52,17.34H62ZM59.7,11l-2-5.61L55.85,11Z"/><path class="cls-1" d="M68.12,17.34V0h4.5l8.29,10.6V0H85.4V17.34H80.91L72.62,6.73V17.34Z"/><path class="cls-1" d="M88.39,17.34V0h5.9a9.67,9.67,0,0,1,6.89,2.39,8.47,8.47,0,0,1,2.42,6.32,8,8,0,0,1-2.27,6,9.39,9.39,0,0,1-6.65,2.63Zm4.5-3.83h.91a5.18,5.18,0,0,0,3.79-1.24,4.74,4.74,0,0,0,1.33-3.56,5.24,5.24,0,0,0-1.35-3.8A5,5,0,0,0,94,3.82H92.89Z"/><path class="cls-1" d="M116.08,14.42h-6.29l-1.17,2.92h-4.76L110.51,0h4.92L122,17.34h-4.81ZM114.88,11l-1.95-5.61L111,11Z"/><polygon class="cls-1" points="2.11 26 4.77 26 2.14 21.64 2.11 21.64 2.11 26"/><polygon class="cls-1" points="7.54 26 12.89 26 12.08 23.78 8.41 23.78 7.54 26"/><path class="cls-1" d="M4.37,18.49c0-1.34-.85-1.6-2-1.6H2.11v3.27h.27C3.55,20.16,4.37,19.81,4.37,18.49Z"/><polygon class="cls-1" points="15.56 26 20.91 26 20.09 23.78 16.42 23.78 15.56 26"/><polygon class="cls-1" points="10.16 18.26 8.99 22.1 11.5 22.1 10.19 18.26 10.16 18.26"/><path class="cls-1" d="M0,0V15.17H2.86c2.14,0,3.62,1,3.62,3.26a2.87,2.87,0,0,1-2.21,3l1.81,2.7,3.41-9h1.59l3.17,8.57,3.25-8.57h1.6l4,10.84H26V0Z"/><polygon class="cls-1" points="18.18 18.26 17.01 22.1 19.52 22.1 18.2 18.26 18.18 18.26"/></g></g></svg>